<?xml version="1.0" encoding="utf-8"?>

<svg version="1.2" baseProfile="tiny" id="Calque_1"
	 xmlns="http://www.w3.org/2000/svg" x="0px" y="0px" width="400"
	 height="400" xml:space="preserve">
    <g>
        <circle cx="200" cy="200" r="180" fill="#fff" />
        <path stroke="null" id="svg_2" d="m200,399.27984c-109.8838,0 -199.27983,-89.39169 -199.27983,-199.27983c0,-109.8838 89.39169,-199.27983 199.27983,-199.27983s199.27983,89.39603 199.27983,199.27983c0,109.88815 -89.39603,199.27983 -199.27983,199.27983zm0,-356.42371c-86.65361,0 -157.13953,70.49461 -157.13953,157.14822s70.49026,157.14822 157.13953,157.14822s157.14822,-70.49896 157.14822,-157.14822s-70.49461,-157.14822 -157.14822,-157.14822z" fill="#0B70B5"/>
        <path stroke="null" id="svg_3" d="m242.18811,252.15819c0,0 -7.99692,21.73077 -40.00634,21.73077l-27.51115,0l0,-116.98542c0,-9.13996 8.00561,-17.74535 17.14558,-17.74535l0.23904,0l0,-26.07692l-82.57692,0l0,26.07692l-0.22165,0c9.14431,0 17.60627,8.60538 17.60627,17.74535l0,99.28788c0,9.14431 -8.46196,17.69319 -17.60627,17.69319l0.22165,0l0,39.11538l93.43361,0l58.68177,0l0,-60.84615l-19.40558,0l0,0.00435z" fill="#0B70B5"/>
        <path stroke="null" id="svg_5" d="m220.36608,74.86555c-24.21677,0 -46.58642,7.79265 -64.64903,20.83111l53.7228,0l0,55.28307c-13.03846,2.02096 -17.38461,10.82627 -17.38461,21.38308l0,84.14153l15.22023,0c14.05546,0 25.36415,-8.69231 26.11169,-21.73077l45.59115,0l0,40.002c30.42307,-19.42296 49.50269,-53.07088 49.50269,-91.03019c0,-59.9943 -48.12061,-108.87984 -108.11492,-108.87984z" fill="#ED8B18"/>
    </g>
</svg>
