<svg width="200" height="200" xmlns="http://www.w3.org/2000/svg">

 <g>
  <title>background</title>
  <rect fill="none" id="canvas_background" height="202" width="202" y="-1" x="-1"/>
 </g>
 <g>
  <title>Layer 1</title>
  <g stroke="null" id="layer1">
   <g stroke="null" id="g18854">
    <path fill="#519735" fill-rule="nonzero" id="path18847" d="m1.41362,133.57305c-3.11755,-3.93488 -0.31526,-12.56361 5.48393,-19.48371c3.83369,-5.19592 12.24057,-12.38847 20.10255,-17.8685c7.20812,-5.02856 0.11676,-6.95124 -1.49066,-7.09136c-2.96576,-0.60327 -16.08983,-2.25351 -16.92273,-3.58849c-0.80955,-1.53348 1.52958,-3.03971 3.87261,-3.29659c8.68321,-0.8835 18.79092,-0.97691 32.55718,-1.29995c7.65181,0.23742 23.85062,-16.2027 29.02318,-17.39756c3.22653,-0.75117 17.45594,0.15957 12.97617,5.4489c-3.42892,4.03219 -10.07268,10.17388 -13.08904,10.77715c-2.33135,0.29969 -7.32877,1.24546 -11.4855,1.59575c2.72445,0.24131 2.72445,0.24909 5.41776,0.35029c7.2159,0.27245 7.69852,0.45148 21.52705,-0.02724c16.9383,-0.59938 31.61919,-3.78309 38.03333,-4.69384c6.41803,-0.90296 14.95723,-1.53737 14.39288,1.84095c-0.5877,3.61184 -19.91573,20.67858 -19.68999,21.76447c0.1985,0.9341 0.45537,0.42424 3.51454,-0.47483c3.05917,-0.90296 17.53378,-8.91285 25.94844,-13.40819c8.52364,-4.54983 20.53457,-9.38768 24.8431,-10.07657c7.74133,-1.25714 7.7063,0.81344 6.63598,3.63909c-1.16762,3.04749 -6.22732,7.55451 -8.68321,20.60074c-2.82175,14.98837 8.07994,18.68195 12.04207,18.91547c2.36638,0.15179 6.62041,0.05838 10.06101,-0.09341c2.7517,-0.12844 4.35523,0.26466 2.75948,1.767c-2.17567,2.03555 -6.27791,3.14869 -11.79687,4.2735c-3.66244,0.73949 -12.39236,0.77063 -16.49071,-1.33498c-14.72371,-7.23925 -8.13054,-29.9456 -8.48861,-29.12048c0.08173,-0.22185 0.72003,-2.0628 -2.51428,-1.94214c-4.7639,0.04281 -17.63498,6.80723 -22.82311,9.6718c-11.09241,6.13391 -21.86566,17.68947 -26.82416,19.0984c-3.17204,0.82123 -7.65181,0.66944 -8.09162,-4.81449c-0.29969,-12.34565 18.14095,-30.62282 18.84152,-32.76736c0.98469,-1.82149 -4.53037,-1.50234 -5.45279,-1.42839c-2.23016,0.1479 -40.26738,3.84537 -63.58867,12.87887c-20.43338,7.09136 -36.5738,24.02187 -34.14126,34.31251c0.58381,2.30021 6.2857,1.75143 8.97512,2.15232c1.75922,0.31915 3.84537,1.79814 0.42034,2.79451c-4.08278,0.94188 -8.59759,1.43617 -12.73875,1.43617c-5.86535,0 -10.99121,-0.99248 -13.11628,-3.10977m161.05395,-38.28242l-0.01168,0.01557l0.01168,-0.01557"/>
    <path fill="#abcb91" fill-rule="evenodd" id="path18060" d="m78.28204,128.89867c-1.97328,-0.80177 -1.95382,-3.73639 0.53711,-7.93204c1.60743,-2.73613 6.95513,-9.10356 4.21901,-8.55867c-4.13338,2.81008 -32.75957,21.43753 -50.6631,16.38173c-11.94088,-6.28959 10.94061,-24.03744 31.22609,-30.76294c13.03455,-4.2229 35.92383,-9.16972 41.01466,-7.15752c1.53737,0.29191 0.29191,2.4559 -0.60716,3.65076c-0.90685,1.20265 -9.81191,13.41208 -11.03402,15.97696c-1.21433,2.56488 -6.41803,10.92505 -1.21433,14.40456c1.43617,1.35833 6.45695,0.54878 7.49224,0.72782c1.03918,0.16736 2.1095,1.17541 0.00778,2.01609c-3.35886,1.01583 -5.50728,1.59575 -9.3293,2.00831c-1.49845,0.15568 -3.08641,0.27245 -4.66659,0.27245c-2.45979,0 -4.90401,-0.26855 -6.98238,-1.02751m-25.54756,-13.78572c-2.75948,-1.51402 -2.08615,-5.24651 6.92789,-10.04155c8.95177,-4.77557 22.43001,-8.60926 26.13526,-7.7063c9.79245,2.38973 -21.44532,24.09971 -33.06315,17.74785"/>
   </g>
  </g>
 </g>
</svg>