<svg id="Calque_1" data-name="Calque 1" xmlns="http://www.w3.org/2000/svg" viewBox="0 0 170.95 143.63">
    <defs>
        <style>
            .cls-1,.cls-2,.cls-3{fill:none;stroke-linecap:round;stroke-linejoin:round;}.cls-1{stroke:#3f9cd2;stroke-width:1.74px;}.cls-2,.cls-3{stroke:#063567;}.cls-2{stroke-width:0.91px;}.cls-3{stroke-width:0.36px;}.cls-4{fill:#95c11f;}.cls-5{fill:#f28e00;}.cls-6{fill:#7f5ca3;}.cls-7{fill:#00ada7;}.cls-8{fill:#0088c2;}.cls-9{fill:#d2436e;}.cls-10{fill:#e40521;}.cls-11{fill:#063567;}
        </style>
    </defs>
    <path id="nantes" class="cls-1"
          d="M175.31,130.89V118.2H165.4v12.7H154.94v-12.7m10.46-4.38V102.5m9.91,11.31V102.5H154.94v11.31m20.37-29.58v15m-21.44-7.4H174.3m-20.43-25.2h21.44L153.87,80.85h21.44m-15.16-30.4v9m-6.28-14.12,21.44,8.31-21.44,8.21m0-35.33h21.44L153.87,40.87h21.44"
          transform="translate(-5.23 -7.21)"/>
    <path id="universite" class="cls-2"
          d="M174.52,144.47h-5.27v3h5.27v3h-5.27m-7.59-3h4.93v-3h-6.46v5.92h6.46m-11.13-5.92h3.17M156.69,142v8.37m-9.9,0v-5.92h6.5v5.92m-16.07-5.92h6.17v5.92h-6.17v-3h4.89m-16.14,3V142l8,8.4V142m-20,5.44h4.89v-3h-6.24v5.92h6.24m-11.1-5.92h-5v5.92h6.32V142m-18.28,5.44h4.82v-3H89.45v5.92h6.24m-10.87-5.92h3M85.86,142v8.4m-3.44,0v-5.92m-3,0H74.31v3h5.12v3H74.31m-4.18,0v-5.92h2.73m-10.84,3h4.82v-3H60.56v5.92h6.28m-15.63-5.92,3.59,5.92,3.55-5.92m-9.64,5.92v-5.92M39,150.39v-5.92h6.5v5.92M27.78,142v8.37h7.77V142"
          transform="translate(-5.23 -7.21)"/>
    <path id="accents" class="cls-3"
          d="M91.49,142l3.2-.54m-3.2.54a.55.55,0,0,0-.64-.29c-.28.05-.45.26-.38.47a.56.56,0,0,0,.64.3C91.39,142.45,91.56,142.24,91.49,142ZM83,142c0-.22-.24-.4-.53-.4a.47.47,0,0,0-.52.4c0,.21.23.39.52.39S83,142.23,83,142Zm-33.71,0c0-.22-.24-.4-.53-.4s-.53.18-.53.4.24.39.53.39S49.24,142.23,49.24,142Z"
          transform="translate(-5.23 -7.21)"/>
    <g id="point">
        <path class="cls-4" d="M40.8,9.64A22.17,22.17,0,1,1,12.41,36.16l-2.48.62A24.73,24.73,0,1,0,41.59,7.21Z"
              transform="translate(-5.23 -7.21)"/>
        <path class="cls-5"
              d="M29.26,56.58a26.25,26.25,0,0,1-15.2-43.09l-1.79-1.56A28.6,28.6,0,0,0,28.59,58.82a27.86,27.86,0,0,0,5.72.48l0-2.32A26.11,26.11,0,0,1,29.26,56.58Z"
              transform="translate(-5.23 -7.21)"/>
        <path class="cls-6" d="M51.68,41.39A21.32,21.32,0,1,0,12,27.71l3.37.52A17.91,17.91,0,1,1,48.71,39.72Z"
              transform="translate(-5.23 -7.21)"/>
        <path class="cls-7" d="M42.93,45.83A17.05,17.05,0,1,1,26.27,16.14l1.12,2.3A14.49,14.49,0,1,0,41.54,43.68Z"
              transform="translate(-5.23 -7.21)"/>
        <path class="cls-8" d="M31.42,44.54a13.64,13.64,0,0,0,15.26-18l-1.61.58A11.93,11.93,0,0,1,31.73,42.86Z"
              transform="translate(-5.23 -7.21)"/>
        <path class="cls-9" d="M25.93,37.59a9.93,9.93,0,1,1,17.31-5l1.22.17A11.16,11.16,0,1,0,25,38.36Z"
              transform="translate(-5.23 -7.21)"/>
        <path class="cls-10" d="M64.05,15.81A34.11,34.11,0,0,1,12.31,58.15l2.16-2.64A30.69,30.69,0,0,0,61,17.4Z"
              transform="translate(-5.23 -7.21)"/>
    </g>
    <g id="iut">
        <path class="cls-11"
              d="M119.55,68.1v39.05c0,12.57,3.43,17.76,9,23.94l11.62-7.17a22.88,22.88,0,0,1-7.24-17.17V68.1H142v-13h-9.14V26.53H119.55v28.6H111v13Z"
              transform="translate(-5.23 -7.21)"/>
        <path class="cls-11"
              d="M97.22,107.14V36.37H83.88v71.2s-2.86,8.48-8.19,8.48c-3.24,0-4.19-3.39-4.19-11.45V36.37H69.19a33.3,33.3,0,0,1-11,21.68v54c0,9.11,5.53,18.44,16,18.44,7,0,12.77-7.84,12.77-7.84,1.33,4,5.9,8.27,5.9,8.27l11.62-7.64c-3-3-7.23-9.11-7.23-16.11"
              transform="translate(-5.23 -7.21)"/>
        <path class="cls-11" d="M33.67,67.47a29.47,29.47,0,0,1-6.82-.8V130H40.38V66.82a29.67,29.67,0,0,1-6.71.65"
              transform="translate(-5.23 -7.21)"/>
    </g>
</svg>